<svg width="117" height="115" viewBox="0 0 117 115" fill="none" xmlns="http://www.w3.org/2000/svg">
<path d="M58.5 0C50.8177 0 43.2106 1.51315 36.113 4.45305C29.0155 7.39295 22.5665 11.702 17.1343 17.1343C6.16337 28.1051 0 42.9848 0 58.5C0 84.357 16.7895 106.294 40.014 114.075C42.939 114.543 43.875 112.729 43.875 111.15V101.263C27.6705 104.773 24.219 93.4245 24.219 93.4245C21.528 86.6385 17.7255 84.825 17.7255 84.825C12.402 81.198 18.135 81.315 18.135 81.315C23.985 81.7245 27.0855 87.3405 27.0855 87.3405C32.175 96.2325 40.7745 93.6 44.109 92.196C44.6355 88.3935 46.1565 85.8195 47.7945 84.357C34.8075 82.8945 21.177 77.8635 21.177 55.575C21.177 49.0815 23.4 43.875 27.2025 39.7215C26.6175 38.259 24.57 32.175 27.7875 24.2775C27.7875 24.2775 32.7015 22.698 43.875 30.2445C48.4965 28.9575 53.5275 28.314 58.5 28.314C63.4725 28.314 68.5035 28.9575 73.125 30.2445C84.2985 22.698 89.2125 24.2775 89.2125 24.2775C92.43 32.175 90.3825 38.259 89.7975 39.7215C93.6 43.875 95.823 49.0815 95.823 55.575C95.823 77.922 82.134 82.836 69.0885 84.2985C71.1945 86.112 73.125 89.6805 73.125 95.121V111.15C73.125 112.729 74.061 114.602 77.0445 114.075C100.269 106.236 117 84.357 117 58.5C117 50.8177 115.487 43.2106 112.547 36.113C109.607 29.0155 105.298 22.5665 99.8657 17.1343C94.4335 11.702 87.9845 7.39295 80.887 4.45305C73.7894 1.51315 66.1823 0 58.5 0Z" fill="black"/>
</svg>
