<svg width="103" height="103" viewBox="0 0 103 103" fill="none" xmlns="http://www.w3.org/2000/svg">
<path d="M51.2104 25.2207C36.6768 25.2207 24.954 36.9435 24.954 51.4771C24.954 66.0107 36.6768 77.7335 51.2104 77.7335C65.744 77.7335 77.4669 66.0107 77.4669 51.4771C77.4669 36.9435 65.744 25.2207 51.2104 25.2207ZM51.2104 68.5472C41.8184 68.5472 34.1403 60.8919 34.1403 51.4771C34.1403 42.0623 41.7956 34.407 51.2104 34.407C60.6252 34.407 68.2805 42.0623 68.2805 51.4771C68.2805 60.8919 60.6024 68.5472 51.2104 68.5472ZM84.6651 24.1466C84.6651 27.5515 81.9229 30.2709 78.5409 30.2709C75.136 30.2709 72.4167 27.5287 72.4167 24.1466C72.4167 20.7646 75.1589 18.0224 78.5409 18.0224C81.9229 18.0224 84.6651 20.7646 84.6651 24.1466ZM102.055 30.3623C101.667 22.1585 99.7928 14.8917 93.7829 8.90464C87.7958 2.91753 80.529 1.0437 72.3252 0.632373C63.8702 0.15249 38.5278 0.15249 30.0727 0.632373C21.8918 1.02085 14.625 2.89468 8.61509 8.88179C2.60513 14.8689 0.75415 22.1357 0.342822 30.3394C-0.137061 38.7945 -0.137061 64.1369 0.342822 72.5919C0.731299 80.7956 2.60513 88.0625 8.61509 94.0496C14.625 100.037 21.869 101.91 30.0727 102.322C38.5278 102.802 63.8702 102.802 72.3252 102.322C80.529 101.933 87.7958 100.06 93.7829 94.0496C99.77 88.0625 101.644 80.7956 102.055 72.5919C102.535 64.1369 102.535 38.8173 102.055 30.3623ZM91.1321 81.664C89.3497 86.1429 85.8991 89.5935 81.3973 91.3988C74.6561 94.0724 58.66 93.4554 51.2104 93.4554C43.7608 93.4554 27.7418 94.0496 21.0235 91.3988C16.5446 89.6164 13.094 86.1658 11.2887 81.664C8.61509 74.9228 9.23208 58.9267 9.23208 51.4771C9.23208 44.0275 8.63794 28.0085 11.2887 21.2902C13.0711 16.8113 16.5217 13.3607 21.0235 11.5554C27.7647 8.88179 43.7608 9.49878 51.2104 9.49878C58.66 9.49878 74.679 8.90464 81.3973 11.5554C85.8762 13.3378 89.3268 16.7884 91.1321 21.2902C93.8057 28.0314 93.1887 44.0275 93.1887 51.4771C93.1887 58.9267 93.8057 74.9456 91.1321 81.664Z" fill="black"/>
</svg>
