<svg width="113" height="113" viewBox="0 0 113 113" fill="none" xmlns="http://www.w3.org/2000/svg">
<path d="M6.27778 0H106.722C108.387 0 109.984 0.661407 111.161 1.83872C112.339 3.01603 113 4.61281 113 6.27778V106.722C113 108.387 112.339 109.984 111.161 111.161C109.984 112.339 108.387 113 106.722 113H6.27778C4.61281 113 3.01603 112.339 1.83872 111.161C0.661407 109.984 0 108.387 0 106.722V6.27778C0 4.61281 0.661407 3.01603 1.83872 1.83872C3.01603 0.661407 4.61281 0 6.27778 0ZM12.5556 12.5556V100.444H100.444V12.5556H12.5556ZM28.25 37.6667C25.7525 37.6667 23.3574 36.6746 21.5914 34.9086C19.8254 33.1426 18.8333 30.7475 18.8333 28.25C18.8333 25.7525 19.8254 23.3574 21.5914 21.5914C23.3574 19.8254 25.7525 18.8333 28.25 18.8333C30.7475 18.8333 33.1426 19.8254 34.9086 21.5914C36.6746 23.3574 37.6667 25.7525 37.6667 28.25C37.6667 30.7475 36.6746 33.1426 34.9086 34.9086C33.1426 36.6746 30.7475 37.6667 28.25 37.6667ZM21.9722 43.9444H34.5278V91.0278H21.9722V43.9444ZM56.5 46.6439C60.1662 43.0969 64.4477 40.8056 69.0556 40.8056C82.0568 40.8056 91.0278 51.3459 91.0278 64.3472V91.0278H78.4722V64.3472C78.4722 61.4335 77.3148 58.6392 75.2545 56.5789C73.1942 54.5186 70.3998 53.3611 67.4861 53.3611C64.5724 53.3611 61.778 54.5186 59.7178 56.5789C57.6575 58.6392 56.5 61.4335 56.5 64.3472V91.0278H43.9444V43.9444H56.5V46.6439Z" fill="black"/>
</svg>
