<svg width="99" height="99" viewBox="0 0 99 99" fill="none" xmlns="http://www.w3.org/2000/svg">
<path d="M83.8687 14.9363C79.3993 10.4217 74.0757 6.84218 68.2084 4.40654C62.3411 1.97091 56.0476 0.727915 49.6949 0.750046C23.0774 0.750046 1.38365 22.4438 1.38365 49.0613C1.38365 57.5925 3.62615 65.8801 7.81865 73.1926L0.993652 98.25L26.5874 91.5225C33.6562 95.3738 41.6024 97.4213 49.6949 97.4213C76.3124 97.4213 98.0062 75.7275 98.0062 49.11C98.0062 36.1913 92.9849 24.0525 83.8687 14.9363ZM49.6949 89.2313C42.4799 89.2313 35.4112 87.2813 29.2199 83.625L27.7574 82.7475L12.5474 86.745L16.5937 71.925L15.6187 70.4138C11.6102 64.0128 9.48171 56.6139 9.47615 49.0613C9.47615 26.9288 27.5137 8.8913 49.6461 8.8913C60.3712 8.8913 70.4624 13.0838 78.0187 20.6888C81.7601 24.4131 84.7252 28.843 86.7419 33.7217C88.7587 38.6005 89.7871 43.831 89.7674 49.11C89.8649 71.2425 71.8274 89.2313 49.6949 89.2313ZM71.7299 59.2013C70.5111 58.6163 64.5637 55.6913 63.4911 55.2525C62.3699 54.8625 61.5899 54.6675 60.7612 55.8375C59.9324 57.0563 57.6412 59.7863 56.9586 60.5663C56.2761 61.395 55.5449 61.4925 54.3261 60.8588C53.1074 60.2738 49.2074 58.9575 44.6249 54.8625C41.0174 51.645 38.6287 47.6963 37.8974 46.4775C37.2149 45.2588 37.7999 44.625 38.4337 43.9913C38.9699 43.455 39.6524 42.5775 40.2374 41.895C40.8224 41.2125 41.0662 40.6763 41.4562 39.8963C41.8462 39.0675 41.6511 38.385 41.3587 37.8C41.0662 37.215 38.6287 31.2675 37.6536 28.83C36.6786 26.49 35.6549 26.7825 34.9237 26.7338H32.5837C31.7549 26.7338 30.4874 27.0263 29.3661 28.245C28.2937 29.4638 25.1737 32.3888 25.1737 38.3363C25.1737 44.2838 29.5124 50.0363 30.0974 50.8163C30.6824 51.645 38.6287 63.8325 50.7187 69.0488C53.5949 70.3163 55.8374 71.0475 57.5924 71.5838C60.4687 72.51 63.1012 72.3638 65.1974 72.0713C67.5374 71.73 72.3636 69.1463 73.3386 66.3188C74.3624 63.4913 74.3624 61.1025 74.0212 60.5663C73.6799 60.03 72.9486 59.7863 71.7299 59.2013Z" fill="black"/>
</svg>
